<?xml version="1.0" encoding="UTF-8" standalone="no"?>
<svg
   id="Слой_1"
   enable-background="new 0 0 300 300"
   viewBox="0 0 300 300"
   version="1.1"
   sodipodi:docname="appicon.svg"
   inkscape:version="1.4.2 (ebf0e940d0, 2025-05-08)"
   inkscape:export-filename="appicon_180p.png"
   inkscape:export-xdpi="57.599998"
   inkscape:export-ydpi="57.599998"
   xmlns:inkscape="http://www.inkscape.org/namespaces/inkscape"
   xmlns:sodipodi="http://sodipodi.sourceforge.net/DTD/sodipodi-0.dtd"
   xmlns="http://www.w3.org/2000/svg"
   xmlns:svg="http://www.w3.org/2000/svg">
  <defs
     id="defs38" />
  <sodipodi:namedview
     id="namedview38"
     pagecolor="#ffffff"
     bordercolor="#666666"
     borderopacity="1.0"
     inkscape:showpageshadow="2"
     inkscape:pageopacity="0.0"
     inkscape:pagecheckerboard="0"
     inkscape:deskcolor="#d1d1d1"
     inkscape:zoom="2.8933333"
     inkscape:cx="150.17281"
     inkscape:cy="150"
     inkscape:window-width="1920"
     inkscape:window-height="1124"
     inkscape:window-x="0"
     inkscape:window-y="0"
     inkscape:window-maximized="1"
     inkscape:current-layer="g8" />
  <g
     id="g18"
     transform="matrix(0.69830508,0,0,0.69830508,45.254238,45.254238)"
     style="stroke-width:1.43204">
    <g
       id="g1"
       style="stroke-width:1.43204">
      <path
         d="m 224.36,76.802 c 0,-39.44 -31.972,-71.412 -71.412,-71.412 -39.44,0 -71.411,31.972 -71.411,71.412 z"
         fill="#ffffff"
         id="path1"
         style="stroke-width:1.43204" />
    </g>
    <g
       id="g2"
       style="stroke-width:1.43204">
      <path
         d="m 143.598,6.528 c 0,0 -16.243,15.434 -25.549,38.922 -8.285,-1.965 -16.609,-4.644 -24.99,-8.073 11.02,-16.956 29.364,-28.729 50.539,-30.849 z"
         fill="#ffffff"
         id="path2"
         style="stroke-width:1.43204" />
    </g>
    <g
       id="g3"
       style="stroke-width:1.43204">
      <path
         d="m 162.097,7.246 c 0,0 16.243,15.434 25.549,38.922 8.285,-1.965 16.609,-4.644 24.99,-8.073 C 201.615,21.139 183.272,9.366 162.097,7.246 Z"
         fill="#ffffff"
         id="path3"
         style="stroke-width:1.43204" />
    </g>
    <g
       id="g4"
       style="stroke-width:1.43204">
      <ellipse
         cx="84.579002"
         cy="113.892"
         fill="#ffffff"
         rx="8.2869997"
         ry="8.2550001"
         id="ellipse3"
         style="stroke-width:1.43204" />
    </g>
    <g
       id="g5"
       style="stroke-width:1.43204">
      <ellipse
         cx="111.826"
         cy="113.892"
         fill="#ffffff"
         rx="8.2869997"
         ry="8.2550001"
         id="ellipse4"
         style="stroke-width:1.43204" />
    </g>
    <g
       id="g6"
       style="stroke-width:1.43204">
      <path
         d="m 162.521,283.841 -9.607,9.571 c -1.603,1.597 -4.225,1.597 -5.828,0 l -9.607,-9.571 c -1.603,-1.597 -1.603,-4.209 0,-5.806 l 9.607,-9.571 c 1.603,-1.597 4.225,-1.597 5.828,0 l 9.607,9.571 c 1.602,1.597 1.602,4.209 0,5.806 z"
         fill="#ffffff"
         id="path5"
         style="stroke-width:1.43204" />
    </g>
    <g
       id="g7"
       style="stroke-width:1.43204">
      <ellipse
         cx="216.09"
         cy="168.312"
         fill="#ffffff"
         rx="8.2869997"
         ry="8.2550001"
         id="ellipse6"
         style="stroke-width:1.43204" />
    </g>
    <g
       id="g8"
       style="stroke-width:1.43204">
      <path
         d="m 224.36,76.802 c 0,-31.995 -28.369,-57.932 -63.365,-57.932 -34.996,0 -63.364,25.937 -63.364,57.932 z"
         fill="#5caeff"
         id="path7"
         style="stroke-width:1.43204;fill:#0099e5;fill-opacity:1" />
    </g>
    <g
       id="g9"
       style="stroke-width:1.43204">
      <path
         d="m 134.446,24.279 c 0,0 -5.47,1.018 -14.777,24.507 -3.753,0 -9.429,-1.807 -12.46,-2.618 3.412,-6.939 15.227,-19.644 27.237,-21.889 z"
         fill="#ffcc5e"
         id="path8"
         style="stroke-width:1.43204" />
    </g>
    <g
       id="g10"
       style="stroke-width:1.43204">
      <path
         d="m 172.595,19.505 c 0,0 5.744,3.175 15.051,26.663 8.285,-1.965 13.967,-2.672 22.348,-6.102 C 197.677,25.54 178.049,20.49 172.595,19.505 Z"
         fill="#ffcc5e"
         id="path9"
         style="stroke-width:1.43204" />
    </g>
    <g
       id="g11"
       style="stroke-width:1.43204">
      <path
         d="M 226.894,248.213 H 73.599 c -7.507,0 -13.649,-6.142 -13.649,-13.649 V 90.452 c 0,-7.507 6.142,-13.649 13.649,-13.649 h 153.294 c 7.507,0 13.649,6.142 13.649,13.649 v 144.112 c 0.001,7.507 -6.141,13.649 -13.648,13.649 z"
         fill="#ffffff"
         id="path10"
         style="stroke-width:1.43204" />
    </g>
    <g
       id="g12"
       style="stroke-width:1.43204">
      <path
         d="M 240.536,90.451 V 234.56 c 0,7.514 -6.148,13.661 -13.661,13.661 H 87.084 c -7.495,0 -13.642,-6.147 -13.642,-13.661 v -1.943 c 0,-5.791 4.694,-10.485 10.485,-10.485 h 117.186 c 7.503,0 13.642,-6.139 13.642,-13.642 V 87.296 c 0,-5.791 4.694,-10.485 10.485,-10.485 h 1.655 c 7.503,0 13.641,6.138 13.641,13.64 z"
         fill="#e6e6e6"
         id="path11"
         style="stroke-width:1.43204" />
    </g>
    <g
       id="g13"
       style="stroke-width:1.43204">
      <path
         d="m 193.555,79.692 c -1.58,0 -2.87,-1.271 -2.889,-2.856 C 190.192,37.3 158.322,8.395 158,8.108 c -1.19,-1.063 -1.295,-2.889 -0.233,-4.08 1.062,-1.191 2.887,-1.297 4.079,-0.236 1.392,1.239 34.095,30.839 34.601,72.976 0.019,1.596 -1.259,2.906 -2.855,2.925 -0.013,-0.001 -0.025,-0.001 -0.037,-0.001 z"
         fill="#1f2c66"
         id="path12"
         style="stroke-width:1.43204" />
    </g>
    <g
       id="g14"
       style="stroke-width:1.43204">
      <path
         d="m 152.949,79.692 c -1.596,0 -2.89,-1.294 -2.89,-2.89 V 5.39 c 0,-1.596 1.294,-2.89 2.89,-2.89 1.596,0 2.89,1.294 2.89,2.89 v 71.412 c 0,1.596 -1.294,2.89 -2.89,2.89 z"
         fill="#1f2c66"
         id="path13"
         style="stroke-width:1.43204" />
    </g>
    <g
       id="g15"
       style="stroke-width:1.43204">
      <path
         d="M 224.36,79.692 H 81.537 c -1.596,0 -2.89,-1.294 -2.89,-2.89 0,-1.596 1.294,-2.89 2.89,-2.89 H 224.36 c 1.596,0 2.89,1.294 2.89,2.89 0.001,1.596 -1.293,2.89 -2.89,2.89 z"
         fill="#1f2c66"
         id="path14"
         style="stroke-width:1.43204" />
    </g>
    <g
       id="g16"
       style="stroke-width:1.43204">
      <path
         d="m 152.958,53.708 c -19.893,0 -39.781,-4.198 -60.38,-12.595 -1.478,-0.603 -2.188,-2.289 -1.585,-3.767 0.602,-1.478 2.289,-2.188 3.768,-1.585 39.704,16.186 76.687,16.187 116.387,0.002 1.479,-0.602 3.165,0.107 3.768,1.585 0.603,1.478 -0.107,3.165 -1.585,3.767 -20.593,8.395 -40.485,12.593 -60.373,12.593 z"
         fill="#1f2c66"
         id="path15"
         style="stroke-width:1.43204" />
    </g>
    <g
       id="g17"
       style="stroke-width:1.43204">
      <path
         d="m 112.404,79.693 c -0.028,0 -0.057,0 -0.086,-0.001 -1.596,-0.046 -2.851,-1.377 -2.805,-2.973 1.201,-41.302 32.397,-71.459 33.724,-72.722 1.156,-1.1 2.984,-1.055 4.084,0.1 1.101,1.155 1.057,2.984 -0.098,4.086 -0.308,0.294 -30.803,29.828 -31.933,68.704 -0.044,1.567 -1.329,2.806 -2.886,2.806 z"
         fill="#1f2c66"
         id="path16"
         style="stroke-width:1.43204" />
    </g>
    <g
       id="g19"
       transform="translate(-0.02449364)"
       style="stroke-width:1.43204">
      <text
         xml:space="preserve"
         style="font-size:58.6567px;line-height:1.25;font-family:sans-serif;-inkscape-font-specification:'sans-serif, Normal';text-align:center;text-anchor:middle;fill:#1f2c66;fill-opacity:1;stroke-width:1.43204"
         x="148.8562"
         y="227.26852"
         id="text1"><tspan
           sodipodi:role="line"
           id="tspan1"
           x="148.8562"
           y="227.26852"
           style="font-style:normal;font-variant:normal;font-weight:600;font-stretch:normal;font-family:Quicksand;-inkscape-font-specification:'Quicksand Semi-Bold';fill:#1f2c66;fill-opacity:1;stroke-width:1.43204">DOTS</tspan></text>
    </g>
    <g
       id="g22"
       style="stroke-width:1.43204">
      <path
         d="M 136.277,283.828 H 48.591 c -1.596,0 -2.89,-1.294 -2.89,-2.89 0,-1.596 1.294,-2.89 2.89,-2.89 h 87.686 c 1.596,0 2.89,1.294 2.89,2.89 0,1.596 -1.294,2.89 -2.89,2.89 z"
         fill="#1f2c66"
         id="path21"
         style="stroke-width:1.43204" />
    </g>
    <g
       id="g23"
       style="stroke-width:1.43204">
      <path
         d="m 251.409,283.828 h -87.742 c -1.596,0 -2.89,-1.294 -2.89,-2.89 0,-1.596 1.294,-2.89 2.89,-2.89 h 87.742 c 1.596,0 2.89,1.294 2.89,2.89 0,1.596 -1.294,2.89 -2.89,2.89 z"
         fill="#1f2c66"
         id="path22"
         style="stroke-width:1.43204" />
    </g>
    <g
       id="g24"
       style="stroke-width:1.43204">
      <ellipse
         cx="84.579002"
         cy="113.892"
         fill="#ffcc5e"
         rx="8.2869997"
         ry="8.2550001"
         id="ellipse23"
         style="stroke-width:1.43204" />
    </g>
    <g
       id="g25"
       style="stroke-width:1.43204">
      <ellipse
         cx="111.826"
         cy="113.892"
         fill="#ffcc5e"
         rx="8.2869997"
         ry="8.2550001"
         id="ellipse24"
         style="stroke-width:1.43204" />
    </g>
    <g
       id="g26"
       style="stroke-width:1.43204">
      <path
         d="m 222.972,127.011 c -1.596,0 -2.89,-1.294 -2.89,-2.89 v -20.459 c 0,-1.596 1.294,-2.89 2.89,-2.89 1.596,0 2.89,1.294 2.89,2.89 v 20.459 c 0,1.596 -1.294,2.89 -2.89,2.89 z"
         fill="#1f2c66"
         id="path25"
         style="stroke-width:1.43204" />
    </g>
    <g
       id="g27"
       style="stroke-width:1.43204">
      <path
         d="m 206.065,127.011 c -1.596,0 -2.89,-1.294 -2.89,-2.89 v -20.459 c 0,-1.596 1.294,-2.89 2.89,-2.89 1.596,0 2.89,1.294 2.89,2.89 v 20.459 c 10e-4,1.596 -1.293,2.89 -2.89,2.89 z"
         fill="#1f2c66"
         id="path26"
         style="stroke-width:1.43204" />
    </g>
    <g
       id="g28"
       style="stroke-width:1.43204">
      <path
         d="m 162.521,283.841 -9.607,9.571 c -1.603,1.597 -4.225,1.597 -5.828,0 l -9.607,-9.571 c -1.603,-1.597 -1.603,-4.209 0,-5.806 l 9.607,-9.571 c 1.603,-1.597 4.225,-1.597 5.828,0 l 9.607,9.571 c 1.602,1.597 1.602,4.209 0,5.806 z"
         fill="#ffcc5e"
         id="path27"
         style="stroke-width:1.43204" />
    </g>
    <g
       id="g29"
       style="stroke-width:1.43204">
      <path
         d="m 150,269.071 c -1.596,0 -2.89,-1.294 -2.89,-2.89 v -16.533 c 0,-1.596 1.294,-2.89 2.89,-2.89 1.596,0 2.89,1.294 2.89,2.89 v 16.533 c 0,1.596 -1.294,2.89 -2.89,2.89 z"
         fill="#1f2c66"
         id="path28"
         style="stroke-width:1.43204" />
    </g>
    <g
       id="g30"
       style="stroke-width:1.43204">
      <path
         d="M 240.001,151.778 H 59.95 c -1.596,0 -2.89,-1.294 -2.89,-2.89 0,-1.596 1.294,-2.89 2.89,-2.89 h 180.051 c 1.596,0 2.89,1.294 2.89,2.89 0,1.596 -1.294,2.89 -2.89,2.89 z"
         fill="#1f2c66"
         id="path29"
         style="stroke-width:1.43204" />
    </g>
    <g
       id="g31"
       style="stroke-width:1.43204">
      <ellipse
         cx="216.09"
         cy="168.312"
         fill="#ffcc5e"
         rx="8.2869997"
         ry="8.2550001"
         id="ellipse30"
         style="stroke-width:1.43204" />
    </g>
    <g
       id="g32"
       style="stroke-width:1.43204">
      <path
         d="m 84.579,125.037 c -6.163,0 -11.177,-5 -11.177,-11.146 0,-6.146 5.014,-11.146 11.177,-11.146 6.163,0 11.177,5 11.177,11.146 0,6.146 -5.014,11.146 -11.177,11.146 z m 0,-16.51 c -2.976,0 -5.396,2.407 -5.396,5.365 0,2.958 2.421,5.365 5.396,5.365 2.976,0 5.396,-2.407 5.396,-5.365 0,-2.959 -2.42,-5.365 -5.396,-5.365 z"
         fill="#1f2c66"
         id="path31"
         style="stroke-width:1.43204" />
    </g>
    <g
       id="g33"
       style="stroke-width:1.43204">
      <path
         d="m 111.826,125.037 c -6.163,0 -11.177,-5 -11.177,-11.146 0,-6.146 5.014,-11.146 11.177,-11.146 6.163,0 11.177,5 11.177,11.146 0,6.146 -5.014,11.146 -11.177,11.146 z m 0,-16.51 c -2.976,0 -5.396,2.407 -5.396,5.365 0,2.958 2.421,5.365 5.396,5.365 2.976,0 5.396,-2.407 5.396,-5.365 0,-2.959 -2.42,-5.365 -5.396,-5.365 z"
         fill="#1f2c66"
         id="path32"
         style="stroke-width:1.43204" />
    </g>
    <g
       id="g34"
       style="stroke-width:1.43204">
      <path
         d="m 150,297.5 c -1.794,0 -3.588,-0.68 -4.954,-2.041 l -9.607,-9.571 c -1.323,-1.318 -2.052,-3.077 -2.052,-4.951 0,-1.874 0.729,-3.632 2.053,-4.951 l 9.607,-9.571 c 2.732,-2.721 7.176,-2.721 9.908,0 l 9.607,9.571 c 1.324,1.319 2.052,3.077 2.052,4.951 0,1.874 -0.729,3.632 -2.052,4.95 l -9.607,9.571 c -1.367,1.362 -3.161,2.042 -4.955,2.042 z m 0,-27.342 c -0.319,0 -0.637,0.118 -0.874,0.354 l -9.607,9.571 c -0.306,0.305 -0.352,0.667 -0.352,0.855 0,0.188 0.046,0.551 0.352,0.855 l 9.607,9.571 c 0.474,0.472 1.274,0.472 1.748,0 l 9.607,-9.571 c 0.306,-0.305 0.351,-0.667 0.351,-0.855 0,-0.188 -0.046,-0.551 -0.352,-0.855 l -9.607,-9.571 c -0.236,-0.236 -0.555,-0.354 -0.873,-0.354 z m 12.521,13.683 h 0.019 z"
         fill="#1f2c66"
         id="path33"
         style="stroke-width:1.43204" />
    </g>
    <g
       id="g35"
       style="stroke-width:1.43204">
      <path
         d="m 216.09,179.458 c -6.163,0 -11.177,-5 -11.177,-11.146 0,-6.146 5.014,-11.146 11.177,-11.146 6.163,0 11.177,5 11.177,11.146 0,6.146 -5.014,11.146 -11.177,11.146 z m 0,-16.511 c -2.976,0 -5.396,2.407 -5.396,5.365 0,2.958 2.421,5.365 5.396,5.365 2.976,0 5.396,-2.407 5.396,-5.365 0.001,-2.958 -2.42,-5.365 -5.396,-5.365 z"
         fill="#1f2c66"
         id="path34"
         style="stroke-width:1.43204" />
    </g>
    <g
       id="g36"
       style="stroke-width:1.43204">
      <path
         d="m 224.36,79.692 c -1.596,0 -2.89,-1.294 -2.89,-2.89 0,-37.783 -30.739,-68.522 -68.522,-68.522 -37.783,0 -68.521,30.739 -68.521,68.522 0,1.596 -1.294,2.89 -2.89,2.89 -1.596,0 -2.89,-1.294 -2.89,-2.89 0,-40.97 33.332,-74.302 74.302,-74.302 40.97,0 74.302,33.332 74.302,74.302 0,1.596 -1.294,2.89 -2.891,2.89 z"
         fill="#1f2c66"
         id="path35"
         style="stroke-width:1.43204" />
    </g>
    <g
       id="g37"
       style="stroke-width:1.43204">
      <path
         d="M 226.894,251.103 H 73.599 c -9.12,0 -16.539,-7.419 -16.539,-16.539 V 90.452 c 0,-9.12 7.419,-16.539 16.539,-16.539 h 153.294 c 9.119,0 16.539,7.419 16.539,16.539 v 144.112 c 0.001,9.12 -7.419,16.539 -16.538,16.539 z M 73.599,79.693 c -5.932,0 -10.759,4.826 -10.759,10.759 v 144.112 c 0,5.932 4.826,10.759 10.759,10.759 h 153.294 c 5.932,0 10.758,-4.826 10.758,-10.759 V 90.452 c 0,-5.932 -4.826,-10.759 -10.758,-10.759 z"
         fill="#1f2c66"
         id="path36"
         style="stroke-width:1.43204" />
    </g>
  </g>
</svg>
