<?xml version="1.0" encoding="UTF-8" standalone="no"?>
<svg
   id="Слой_1"
   enable-background="new 0 0 300 300"
   viewBox="0 0 300 300"
   version="1.1"
   sodipodi:docname="favicon.svg"
   inkscape:export-filename="favicon.png"
   inkscape:export-xdpi="10.24"
   inkscape:export-ydpi="10.24"
   inkscape:version="1.4.2 (ebf0e940d0, 2025-05-08)"
   xmlns:inkscape="http://www.inkscape.org/namespaces/inkscape"
   xmlns:sodipodi="http://sodipodi.sourceforge.net/DTD/sodipodi-0.dtd"
   xmlns="http://www.w3.org/2000/svg"
   xmlns:svg="http://www.w3.org/2000/svg">
  <defs
     id="defs38" />
  <sodipodi:namedview
     id="namedview38"
     pagecolor="#ffffff"
     bordercolor="#666666"
     borderopacity="1.0"
     inkscape:showpageshadow="2"
     inkscape:pageopacity="0.0"
     inkscape:pagecheckerboard="0"
     inkscape:deskcolor="#d1d1d1"
     inkscape:zoom="2.0458956"
     inkscape:cx="175.22888"
     inkscape:cy="207.2442"
     inkscape:window-width="1920"
     inkscape:window-height="1124"
     inkscape:window-x="0"
     inkscape:window-y="0"
     inkscape:window-maximized="1"
     inkscape:current-layer="g8" />
  <g
     id="g38">
    <g
       id="g1">
      <path
         d="m224.36 76.802c0-39.44-31.972-71.412-71.412-71.412s-71.411 31.972-71.411 71.412z"
         fill="#fff"
         id="path1" />
    </g>
    <g
       id="g2">
      <path
         d="m143.598 6.528s-16.243 15.434-25.549 38.922c-8.285-1.965-16.609-4.644-24.99-8.073 11.02-16.956 29.364-28.729 50.539-30.849z"
         fill="#fff"
         id="path2" />
    </g>
    <g
       id="g3">
      <path
         d="m162.097 7.246s16.243 15.434 25.549 38.922c8.285-1.965 16.609-4.644 24.99-8.073-11.021-16.956-29.364-28.729-50.539-30.849z"
         fill="#fff"
         id="path3" />
    </g>
    <g
       id="g4">
      <ellipse
         cx="84.579"
         cy="113.892"
         fill="#fff"
         rx="8.287"
         ry="8.255"
         id="ellipse3" />
    </g>
    <g
       id="g5">
      <ellipse
         cx="111.826"
         cy="113.892"
         fill="#fff"
         rx="8.287"
         ry="8.255"
         id="ellipse4" />
    </g>
    <g
       id="g6">
      <path
         d="m162.521 283.841-9.607 9.571c-1.603 1.597-4.225 1.597-5.828 0l-9.607-9.571c-1.603-1.597-1.603-4.209 0-5.806l9.607-9.571c1.603-1.597 4.225-1.597 5.828 0l9.607 9.571c1.602 1.597 1.602 4.209 0 5.806z"
         fill="#fff"
         id="path5" />
    </g>
    <g
       id="g7">
      <ellipse
         cx="216.09"
         cy="168.312"
         fill="#fff"
         rx="8.287"
         ry="8.255"
         id="ellipse6" />
    </g>
    <g
       id="g8">
      <path
         d="m224.36 76.802c0-31.995-28.369-57.932-63.365-57.932s-63.364 25.937-63.364 57.932z"
         fill="#5caeff"
         id="path7"
         style="fill:#0099e5;fill-opacity:1" />
    </g>
    <g
       id="g9">
      <path
         d="m134.446 24.279s-5.47 1.018-14.777 24.507c-3.753 0-9.429-1.807-12.46-2.618 3.412-6.939 15.227-19.644 27.237-21.889z"
         fill="#ffcc5e"
         id="path8" />
    </g>
    <g
       id="g10">
      <path
         d="m172.595 19.505s5.744 3.175 15.051 26.663c8.285-1.965 13.967-2.672 22.348-6.102-12.317-14.526-31.945-19.576-37.399-20.561z"
         fill="#ffcc5e"
         id="path9" />
    </g>
    <g
       id="g11">
      <path
         d="m226.894 248.213h-153.295c-7.507 0-13.649-6.142-13.649-13.649v-144.112c0-7.507 6.142-13.649 13.649-13.649h153.294c7.507 0 13.649 6.142 13.649 13.649v144.112c.001 7.507-6.141 13.649-13.648 13.649z"
         fill="#fff"
         id="path10" />
    </g>
    <g
       id="g12">
      <path
         d="m240.536 90.451v144.109c0 7.514-6.148 13.661-13.661 13.661h-139.791c-7.495 0-13.642-6.147-13.642-13.661v-1.943c0-5.791 4.694-10.485 10.485-10.485h117.186c7.503 0 13.642-6.139 13.642-13.642v-121.194c0-5.791 4.694-10.485 10.485-10.485h1.655c7.503 0 13.641 6.138 13.641 13.64z"
         fill="#e6e6e6"
         id="path11" />
    </g>
    <g
       id="g13">
      <path
         d="m193.555 79.692c-1.58 0-2.87-1.271-2.889-2.856-.474-39.536-32.344-68.441-32.666-68.728-1.19-1.063-1.295-2.889-.233-4.08s2.887-1.297 4.079-.236c1.392 1.239 34.095 30.839 34.601 72.976.019 1.596-1.259 2.906-2.855 2.925-.013-.001-.025-.001-.037-.001z"
         fill="#1f2c66"
         id="path12" />
    </g>
    <g
       id="g14">
      <path
         d="m152.949 79.692c-1.596 0-2.89-1.294-2.89-2.89v-71.412c0-1.596 1.294-2.89 2.89-2.89s2.89 1.294 2.89 2.89v71.412c0 1.596-1.294 2.89-2.89 2.89z"
         fill="#1f2c66"
         id="path13" />
    </g>
    <g
       id="g15">
      <path
         d="m224.36 79.692h-142.823c-1.596 0-2.89-1.294-2.89-2.89s1.294-2.89 2.89-2.89h142.823c1.596 0 2.89 1.294 2.89 2.89.001 1.596-1.293 2.89-2.89 2.89z"
         fill="#1f2c66"
         id="path14" />
    </g>
    <g
       id="g16">
      <path
         d="m152.958 53.708c-19.893 0-39.781-4.198-60.38-12.595-1.478-.603-2.188-2.289-1.585-3.767.602-1.478 2.289-2.188 3.768-1.585 39.704 16.186 76.687 16.187 116.387.002 1.479-.602 3.165.107 3.768 1.585s-.107 3.165-1.585 3.767c-20.593 8.395-40.485 12.593-60.373 12.593z"
         fill="#1f2c66"
         id="path15" />
    </g>
    <g
       id="g17">
      <path
         d="m112.404 79.693c-.028 0-.057 0-.086-.001-1.596-.046-2.851-1.377-2.805-2.973 1.201-41.302 32.397-71.459 33.724-72.722 1.156-1.1 2.984-1.055 4.084.1 1.101 1.155 1.057 2.984-.098 4.086-.308.294-30.803 29.828-31.933 68.704-.044 1.567-1.329 2.806-2.886 2.806z"
         fill="#1f2c66"
         id="path16" />
    </g>
    <g
       id="g19"
       transform="translate(-0.02449364)">
      <text
         xml:space="preserve"
         style="font-size:58.6567px;line-height:1.25;font-family:sans-serif;-inkscape-font-specification:'sans-serif, Normal';text-align:center;text-anchor:middle;fill:#1f2c66;fill-opacity:1;stroke-width:1"
         x="148.8562"
         y="227.26852"
         id="text1"><tspan
           sodipodi:role="line"
           id="tspan1"
           x="148.8562"
           y="227.26852"
           style="font-style:normal;font-variant:normal;font-weight:600;font-stretch:normal;font-family:Quicksand;-inkscape-font-specification:'Quicksand Semi-Bold';fill:#1f2c66;fill-opacity:1;stroke-width:1">DOTS</tspan></text>
    </g>
    <g
       id="g22">
      <path
         d="m136.277 283.828h-87.686c-1.596 0-2.89-1.294-2.89-2.89s1.294-2.89 2.89-2.89h87.686c1.596 0 2.89 1.294 2.89 2.89s-1.294 2.89-2.89 2.89z"
         fill="#1f2c66"
         id="path21" />
    </g>
    <g
       id="g23">
      <path
         d="m251.409 283.828h-87.742c-1.596 0-2.89-1.294-2.89-2.89s1.294-2.89 2.89-2.89h87.742c1.596 0 2.89 1.294 2.89 2.89s-1.294 2.89-2.89 2.89z"
         fill="#1f2c66"
         id="path22" />
    </g>
    <g
       id="g24">
      <ellipse
         cx="84.579"
         cy="113.892"
         fill="#ffcc5e"
         rx="8.287"
         ry="8.255"
         id="ellipse23" />
    </g>
    <g
       id="g25">
      <ellipse
         cx="111.826"
         cy="113.892"
         fill="#ffcc5e"
         rx="8.287"
         ry="8.255"
         id="ellipse24" />
    </g>
    <g
       id="g26">
      <path
         d="m222.972 127.011c-1.596 0-2.89-1.294-2.89-2.89v-20.459c0-1.596 1.294-2.89 2.89-2.89s2.89 1.294 2.89 2.89v20.459c0 1.596-1.294 2.89-2.89 2.89z"
         fill="#1f2c66"
         id="path25" />
    </g>
    <g
       id="g27">
      <path
         d="m206.065 127.011c-1.596 0-2.89-1.294-2.89-2.89v-20.459c0-1.596 1.294-2.89 2.89-2.89s2.89 1.294 2.89 2.89v20.459c.001 1.596-1.293 2.89-2.89 2.89z"
         fill="#1f2c66"
         id="path26" />
    </g>
    <g
       id="g28">
      <path
         d="m162.521 283.841-9.607 9.571c-1.603 1.597-4.225 1.597-5.828 0l-9.607-9.571c-1.603-1.597-1.603-4.209 0-5.806l9.607-9.571c1.603-1.597 4.225-1.597 5.828 0l9.607 9.571c1.602 1.597 1.602 4.209 0 5.806z"
         fill="#ffcc5e"
         id="path27" />
    </g>
    <g
       id="g29">
      <path
         d="m150 269.071c-1.596 0-2.89-1.294-2.89-2.89v-16.533c0-1.596 1.294-2.89 2.89-2.89s2.89 1.294 2.89 2.89v16.533c0 1.596-1.294 2.89-2.89 2.89z"
         fill="#1f2c66"
         id="path28" />
    </g>
    <g
       id="g30">
      <path
         d="m240.001 151.778h-180.051c-1.596 0-2.89-1.294-2.89-2.89s1.294-2.89 2.89-2.89h180.051c1.596 0 2.89 1.294 2.89 2.89s-1.294 2.89-2.89 2.89z"
         fill="#1f2c66"
         id="path29" />
    </g>
    <g
       id="g31">
      <ellipse
         cx="216.09"
         cy="168.312"
         fill="#ffcc5e"
         rx="8.287"
         ry="8.255"
         id="ellipse30" />
    </g>
    <g
       id="g32">
      <path
         d="m84.579 125.037c-6.163 0-11.177-5-11.177-11.146s5.014-11.146 11.177-11.146 11.177 5 11.177 11.146-5.014 11.146-11.177 11.146zm0-16.51c-2.976 0-5.396 2.407-5.396 5.365s2.421 5.365 5.396 5.365c2.976 0 5.396-2.407 5.396-5.365 0-2.959-2.42-5.365-5.396-5.365z"
         fill="#1f2c66"
         id="path31" />
    </g>
    <g
       id="g33">
      <path
         d="m111.826 125.037c-6.163 0-11.177-5-11.177-11.146s5.014-11.146 11.177-11.146 11.177 5 11.177 11.146-5.014 11.146-11.177 11.146zm0-16.51c-2.976 0-5.396 2.407-5.396 5.365s2.421 5.365 5.396 5.365c2.976 0 5.396-2.407 5.396-5.365 0-2.959-2.42-5.365-5.396-5.365z"
         fill="#1f2c66"
         id="path32" />
    </g>
    <g
       id="g34">
      <path
         d="m150 297.5c-1.794 0-3.588-.68-4.954-2.041l-9.607-9.571c-1.323-1.318-2.052-3.077-2.052-4.951s.729-3.632 2.053-4.951l9.607-9.571c2.732-2.721 7.176-2.721 9.908 0l9.607 9.571c1.324 1.319 2.052 3.077 2.052 4.951s-.729 3.632-2.052 4.95l-9.607 9.571c-1.367 1.362-3.161 2.042-4.955 2.042zm0-27.342c-.319 0-.637.118-.874.354l-9.607 9.571c-.306.305-.352.667-.352.855s.046.551.352.855l9.607 9.571c.474.472 1.274.472 1.748 0l9.607-9.571c.306-.305.351-.667.351-.855s-.046-.551-.352-.855l-9.607-9.571c-.236-.236-.555-.354-.873-.354zm12.521 13.683h.019z"
         fill="#1f2c66"
         id="path33" />
    </g>
    <g
       id="g35">
      <path
         d="m216.09 179.458c-6.163 0-11.177-5-11.177-11.146s5.014-11.146 11.177-11.146 11.177 5 11.177 11.146-5.014 11.146-11.177 11.146zm0-16.511c-2.976 0-5.396 2.407-5.396 5.365s2.421 5.365 5.396 5.365c2.976 0 5.396-2.407 5.396-5.365.001-2.958-2.42-5.365-5.396-5.365z"
         fill="#1f2c66"
         id="path34" />
    </g>
    <g
       id="g36">
      <path
         d="m224.36 79.692c-1.596 0-2.89-1.294-2.89-2.89 0-37.783-30.739-68.522-68.522-68.522s-68.521 30.739-68.521 68.522c0 1.596-1.294 2.89-2.89 2.89s-2.89-1.294-2.89-2.89c0-40.97 33.332-74.302 74.302-74.302s74.302 33.332 74.302 74.302c0 1.596-1.294 2.89-2.891 2.89z"
         fill="#1f2c66"
         id="path35" />
    </g>
    <g
       id="g37">
      <path
         d="m226.894 251.103h-153.295c-9.12 0-16.539-7.419-16.539-16.539v-144.112c0-9.12 7.419-16.539 16.539-16.539h153.294c9.119 0 16.539 7.419 16.539 16.539v144.112c.001 9.12-7.419 16.539-16.538 16.539zm-153.295-171.41c-5.932 0-10.759 4.826-10.759 10.759v144.112c0 5.932 4.826 10.759 10.759 10.759h153.294c5.932 0 10.758-4.826 10.758-10.759v-144.112c0-5.932-4.826-10.759-10.758-10.759z"
         fill="#1f2c66"
         id="path36" />
    </g>
  </g>
</svg>
